<svg version="1.1" id="Layer_1" xmlns="http://www.w3.org/2000/svg" x="0" y="0" viewBox="0 0 280.3 63.3" style="enable-background:new 0 0 280.3 63.3" xml:space="preserve"><style>.st0{display:none}.st1,.st5{display:inline;fill:#62b766}.st5{fill:#fd6c3e}.st6{stroke:#000;stroke-width:.7265;stroke-miterlimit:10}</style><switch><g><path d="M10.5 54.2v-2.8h7.3v6.7c-.7.7-1.7 1.3-3.1 1.8s-2.7.8-4.1.8c-1.8 0-3.3-.4-4.6-1.1-1.3-.7-2.3-1.8-2.9-3.2s-1-2.9-1-4.5c0-1.7.4-3.3 1.1-4.7s1.8-2.4 3.2-3.1c1.1-.6 2.4-.8 4-.8 2.1 0 3.7.4 4.9 1.3 1.2.9 1.9 2.1 2.3 3.6l-3.4.6c-.2-.8-.7-1.5-1.3-2-.7-.5-1.5-.7-2.4-.7-1.5 0-2.7.5-3.5 1.4S5.6 50 5.6 51.8c0 2 .4 3.5 1.3 4.5s2 1.5 3.5 1.5c.7 0 1.4-.1 2.1-.4.7-.3 1.3-.6 1.8-1v-2.1h-3.8zM20.2 52.1c0-1.7.3-3.1.8-4.3.4-.9.9-1.6 1.6-2.3s1.4-1.2 2.2-1.5c1-.4 2.3-.7 3.6-.7 2.5 0 4.4.8 5.9 2.3 1.5 1.5 2.2 3.7 2.2 6.4s-.7 4.8-2.2 6.4c-1.5 1.5-3.4 2.3-5.9 2.3-2.5 0-4.5-.8-6-2.3-1.4-1.5-2.2-3.6-2.2-6.3zm3.5-.1c0 1.9.4 3.3 1.3 4.3s2 1.5 3.3 1.5c1.4 0 2.5-.5 3.3-1.5.9-1 1.3-2.4 1.3-4.4 0-1.9-.4-3.4-1.3-4.3-.8-.9-2-1.4-3.4-1.4s-2.5.5-3.4 1.4-1.1 2.5-1.1 4.4zM43.4 60.4l-6-16.8h3.7L45.3 56l4.1-12.4H53l-6 16.8h-3.6zM54.8 60.4V43.6h12.4v2.8h-9.1v3.7h8.4V53h-8.4v4.6h9.4v2.8H54.8zM70.4 60.4V43.6h7.1c1.8 0 3.1.2 3.9.5s1.5.8 2 1.6.7 1.7.7 2.6c0 1.3-.4 2.3-1.1 3.1-.7.8-1.8 1.3-3.3 1.6.7.4 1.3.9 1.8 1.4.5.5 1.1 1.4 1.9 2.7l2 3.3h-4.1L79 56.7c-.9-1.3-1.5-2.1-1.8-2.5-.3-.3-.7-.6-1-.7-.4-.1-.9-.2-1.7-.2h-.7v7h-3.4zm3.4-9.7h2.5c1.6 0 2.6-.1 3-.2.4-.1.7-.4.9-.7.2-.3.3-.8.3-1.3 0-.6-.2-1-.5-1.4s-.7-.6-1.3-.7c-.3 0-1.1-.1-2.5-.1h-2.6v4.4zM87.4 60.4V43.6h3.3l6.9 11.2V43.6h3.1v16.8h-3.4l-6.8-10.9v10.9h-3.1zM104.2 60.4V43.6h5.1l3 11.4 3-11.4h5.1v16.8h-3.1V47.2L114 60.4h-3.3l-3.3-13.2v13.2h-3.2zM123.8 60.4V43.6h12.4v2.8h-9.1v3.7h8.4V53h-8.4v4.6h9.4v2.8h-12.7zM139.4 60.4V43.6h3.3l6.9 11.2V43.6h3.1v16.8h-3.4l-6.8-10.9v10.9h-3.1zM160.1 60.4v-14h-5v-2.8h13.3v2.8h-5v13.9h-3.3zM176.5 52.1c0-1.7.3-3.1.8-4.3.4-.9.9-1.6 1.6-2.3.7-.7 1.4-1.2 2.2-1.5 1-.4 2.3-.7 3.6-.7 2.5 0 4.5.8 5.9 2.3 1.5 1.5 2.2 3.7 2.2 6.4s-.7 4.8-2.2 6.4c-1.5 1.5-3.4 2.3-5.9 2.3-2.5 0-4.5-.8-6-2.3-1.5-1.5-2.2-3.6-2.2-6.3zm3.5-.1c0 1.9.4 3.3 1.3 4.3s2 1.5 3.3 1.5c1.4 0 2.5-.5 3.3-1.5.9-1 1.3-2.4 1.3-4.4 0-1.9-.4-3.4-1.3-4.3-.8-.9-2-1.4-3.4-1.4s-2.5.5-3.4 1.4-1.1 2.5-1.1 4.4zM195.4 60.4V43.6h11.5v2.8h-8.1v4h7v2.8h-7v7.1h-3.4zM216.1 60.4V43.6h3.4v16.8h-3.4zM222.8 60.4V43.6h3.3l6.9 11.2V43.6h3.1v16.8h-3.4l-6.8-10.9v10.9h-3.1zM239.6 43.6h6.2c1.4 0 2.5.1 3.2.3 1 .3 1.8.8 2.5 1.5s1.2 1.6 1.6 2.7c.4 1.1.5 2.4.5 4 0 1.4-.2 2.6-.5 3.6-.4 1.2-1 2.2-1.8 3-.6.6-1.4 1-2.4 1.3-.7.2-1.7.4-3 .4h-6.4V43.6zm3.4 2.8v11.1h2.5c.9 0 1.6-.1 2-.2.5-.1 1-.4 1.4-.7.4-.3.7-.9.9-1.6.2-.8.3-1.8.3-3.1s-.1-2.3-.3-3c-.2-.7-.5-1.2-1-1.6-.4-.4-.9-.7-1.6-.8-.5-.1-1.4-.2-2.8-.2H243zM256.5 60.4V43.6h3.4v16.8h-3.4zM278.2 60.4h-3.7l-1.5-3.8h-6.7l-1.4 3.8h-3.6l6.5-16.8h3.6l6.8 16.8zm-6.2-6.7-2.3-6.2-2.3 6.2h4.6z"/><path class="st6" d="M78.4 7.5h-3.3v21h-2.6v-8.8h-8.2v2.8c0 .2-.1.3-.2.5s-.2.3-.3.4c-.1.1-.3.1-.5.1s-.5-.1-.9-.2c-.3-.2-.7-.4-1-.6-.3-.3-.7-.5-1-.9-.3-.3-.6-.7-.9-1-.3-.4-.5-.7-.6-1.1-.2-.4-.2-.7-.2-1 0-.4.2-.8.5-1 .3-.2.7-.3 1.2-.3h1.5V8.9c0-.5-.1-1-.4-1.2-.3-.3-.6-.4-1-.4s-.8.2-1.1.5c-.3.3-.4.7-.4 1.2v.3c0 .1.1.3.2.5s.2.4.4.6l.7.7-1.4 1.7c-.5-.3-.9-.5-1.2-.9s-.5-.6-.7-1-.3-.7-.3-1c-.1-.3-.1-.6-.1-.9 0-.5.1-1 .3-1.5.2-.5.4-.9.8-1.3.3-.4.8-.7 1.3-.9.5-.2 1.1-.4 1.8-.4.6 0 1.1.1 1.6.3s.9.5 1.2.9c.3.4.6.8.7 1.3.2.5.2 1.1.2 1.7v8.4h8.2V5.2h5.8v2.3z"/><path class="st6" d="M86.7 7.5h-3.3v21h-2.6v-21h-3.6V5.2h9.4v2.3z"/><path class="st6" d="M102.4 7.5h-5.9c.5.9 1 1.8 1.3 2.8.3 1 .5 1.9.5 2.9 0 .7-.1 1.4-.3 2.1-.2.7-.6 1.3-1 1.8s-1 1-1.6 1.3c-.6.3-1.4.5-2.2.6v.1c.9 1.5 2 2.8 3.2 4.1 1.2 1.3 2.5 2.5 4 3.7l-1.7 1.9c-.9-.7-1.7-1.4-2.5-2.1-.8-.8-1.5-1.6-2.3-2.4-.7-.8-1.4-1.6-2-2.5-.6-.8-1.2-1.7-1.7-2.5s-1-1.6-1.4-2.3c-.4-.7-.7-1.4-1-2l2.2-1c.4.8.8 1.4 1.3 1.9s1 .7 1.6.7c.4 0 .8-.1 1.2-.3.4-.2.7-.5.9-.9s.4-.8.5-1.2c.1-.4.2-.9.2-1.3 0-.5-.1-1-.2-1.4s-.3-.9-.5-1.4-.4-.9-.7-1.3c-.2-.4-.5-.8-.7-1.2h-8V5.2h16.7v2.3z"/><path class="st6" d="M121.9 7.5h-3.3v21h-2.5V14.8H111c-.7 0-1.3 0-1.9.1s-1 .3-1.4.5c-.4.3-.7.6-.9 1.1-.2.5-.3 1.1-.3 1.9 0 1 .2 1.9.5 2.8.3.8.7 1.6 1.3 2.3.5.7 1.1 1.4 1.7 1.9s1.2 1.1 1.8 1.6l-1.6 1.8c-.1-.1-.3-.2-.7-.5s-.8-.6-1.2-1c-.5-.4-1-1-1.5-1.6-.5-.6-1-1.3-1.4-2.1-.4-.8-.8-1.7-1.1-2.6-.3-.9-.4-2-.4-3.1s.2-2 .5-2.7c.3-.7.7-1.3 1.3-1.7.6-.4 1.2-.7 2-.9.8-.2 1.7-.2 2.7-.2h5.7v-5h-14.8V5.2H122v2.3zM157.1 5.2v2.3h-3.3v21h-2.6V18h-9c-.6.4-1.2.6-2 .7v.1c1 1.6 2.1 3.1 3.3 4.4 1.2 1.4 2.6 2.6 4.1 3.8l-1.7 1.9c-.9-.7-1.7-1.4-2.5-2.1-.8-.8-1.5-1.5-2.2-2.4-.7-.8-1.4-1.6-2-2.5-.6-.8-1.2-1.7-1.7-2.5s-1-1.6-1.4-2.3c-.4-.8-.8-1.5-1.1-2.1l2.1-1.2c.2.5.4.8.6 1.1s.4.6.6.7c.2.2.4.3.6.4.2.1.5.1.7.1.7 0 1.2-.3 1.6-.8.3-.6.5-1.3.5-2.2 0-.5-.1-1.1-.2-1.6s-.2-1-.4-1.5-.3-.9-.5-1.4c-.2-.4-.4-.8-.5-1.2h-7.2V5.2h24.2zm-5.9 2.3h-8.3c.4.9.8 1.9 1 2.9.2 1 .4 1.9.4 2.9 0 .4 0 .9-.1 1.3l-.3 1.2h7.3V7.5z"/><path class="st6" d="M172.7 7.5h-5.9c.5.9 1 1.8 1.3 2.8.3 1 .5 1.9.5 2.9 0 .7-.1 1.4-.3 2.1-.2.7-.6 1.3-1 1.8s-1 1-1.6 1.3c-.6.3-1.4.5-2.2.6v.1c.9 1.5 2 2.8 3.2 4.1 1.2 1.3 2.5 2.5 4 3.7l-1.7 1.9c-.9-.7-1.7-1.4-2.5-2.1-.8-.8-1.5-1.6-2.3-2.4-.7-.8-1.4-1.6-2-2.5-.6-.8-1.2-1.7-1.7-2.5s-1-1.6-1.4-2.3c-.4-.7-.7-1.4-1-2l2.1-1.2c.4.8.8 1.4 1.3 1.9s1 .7 1.6.7c.4 0 .8-.1 1.2-.3.4-.2.7-.5.9-.9s.4-.8.5-1.2c.1-.4.2-.9.2-1.3 0-.5-.1-1-.2-1.4-.1-.5-.3-.9-.5-1.4-.2-.5-.4-.9-.7-1.3-.2-.4-.5-.8-.7-1.2h-8V5.2h16.7v2.3z"/><path class="st6" d="M200.3 7.5h-13.2v6.1h.1c.5-.7 1.2-1.3 2-1.8.8-.4 1.7-.7 2.6-.7.7 0 1.4.2 2.1.5.6.3 1.2.7 1.7 1.3.5.5.8 1.2 1.1 1.9s.4 1.5.4 2.4c0 1-.2 1.8-.5 2.6s-.8 1.5-1.3 2.2-1.1 1.2-1.8 1.7-1.3.9-1.9 1.3l-1.4-2.4c.2-.1.5-.3.8-.5.3-.2.6-.4.9-.7.3-.2.7-.5 1-.9s.6-.7.9-1 .5-.8.6-1.2c.2-.4.2-.9.2-1.4 0-.4-.1-.9-.2-1.3s-.3-.8-.6-1.1-.5-.5-.9-.7c-.3-.2-.7-.3-1.1-.3-.5 0-1.1.1-1.6.4-.5.3-1 .6-1.4 1.1s-.8.9-1.1 1.4c-.3.5-.5.9-.6 1.3v10.6h-2.6v-6h-.1c-.2.1-.4.3-.6.5-.2.2-.5.4-.9.6-.3.2-.7.3-1.2.5s-.9.2-1.5.2c-.9 0-1.8-.2-2.5-.5-.8-.4-1.4-.8-2-1.4s-1-1.3-1.3-2.1c-.3-.8-.5-1.7-.5-2.6 0-.9.1-1.7.4-2.5.3-.8.7-1.4 1.2-2 .5-.5 1.1-1 1.8-1.3.7-.3 1.4-.5 2.2-.5.6 0 1.1.1 1.6.2s.9.3 1.3.5.8.4 1.1.7c.3.2.6.4.8.6h.1V7.5h-12.9V5.2h28.7v2.3zm-20.2 6.2c-.6 0-1.1.1-1.6.4-.5.2-.8.6-1.1.9-.3.4-.5.8-.7 1.3-.2.5-.2.9-.2 1.4 0 .5.1 1 .3 1.5.2.5.4.9.8 1.3.3.4.7.7 1.2 1 .5.2 1 .4 1.5.4s1-.1 1.5-.3c.5-.2 1-.5 1.4-.9s.8-.9 1.1-1.6c.3-.6.4-1.4.4-2.3V16c-.2-.3-.5-.6-.9-.9-.3-.3-.7-.5-1.1-.8-.4-.2-.8-.4-1.2-.5-.6 0-1-.1-1.4-.1z"/><path class="st6" d="M208.6 7.5h-3.3v21h-2.6v-21h-3.6V5.2h9.4v2.3z"/><path class="st6" d="M224.2 7.5h-5.9c.5.9 1 1.8 1.3 2.8.3 1 .5 1.9.5 2.9 0 .7-.1 1.4-.3 2.1-.2.7-.6 1.3-1 1.8s-1 1-1.6 1.3c-.6.3-1.4.5-2.2.6v.1c.9 1.5 2 2.8 3.2 4.1 1.2 1.3 2.5 2.5 4 3.7l-1.7 1.9c-.9-.7-1.7-1.4-2.5-2.1-.8-.8-1.5-1.6-2.3-2.4-.7-.8-1.4-1.6-2-2.5-.6-.8-1.2-1.7-1.7-2.5s-1-1.6-1.4-2.3c-.4-.7-.7-1.4-1-2l2.1-1.2c.4.8.8 1.4 1.3 1.9s1 .7 1.6.7c.4 0 .8-.1 1.2-.3.4-.2.7-.5.9-.9s.4-.8.5-1.2c.1-.4.2-.9.2-1.3 0-.5-.1-1-.2-1.4-.1-.5-.3-.9-.5-1.4-.2-.5-.4-.9-.7-1.3-.2-.4-.5-.8-.7-1.2h-8V5.2H224v2.3z"/></g></switch></svg>