<svg version="1.1" id="Layer_1" xmlns="http://www.w3.org/2000/svg" x="0" y="0" viewBox="0 0 512 93.4" style="enable-background:new 0 0 512 93.4" xml:space="preserve"><style>.st0{fill:#62b766}.st4{fill:#fd6c3e}.st5{stroke:#000;stroke-width:.7265;stroke-miterlimit:10}</style><switch><g><path class="st0" d="M490 66.6c-1.1-.1-2.3.2-3.5-.2-1 0-2 .2-2.8-.6-.3-.7-.6-1.4-1.5-1.5-13.3-.1-26.7-.2-40 .1-.3 0-.6 0-.5-.4-.2-.2-.4-.3-.7-.3-3.8.3-7.6-.8-11.4-1 1.3 0 2.6 0 3.9.1 1 0 2.1 0 3.1-.3 4.2-1 8.4-.3 12.7-.6 2.3.1 4.7.1 7 .2 2.4.8 4.8.2 7.2.4 1.3-.1 2.7.3 4-.4.1-.1.3-.1.4-.2-.3-1.2-1.3-.6-2-.6-4.3-.2-8.5.2-12.8-.2V61c-1.8-.5-3.6.2-5.4-.4-.4 0-.9-.1-1.3-.1-.5-.8-1.4-.5-2-.8-1.7 0-3.4-.1-5.1-.1-1.9-.4-3.9.2-5.9-.3-3.1 0-6.3-.1-9.4-.1-2.6-.4-5.2.2-7.8-.3-2.8 0-5.6-.1-8.5-.1-3.7-.5-7.4.2-11.1-.4-1.5 0-3.1-.1-4.6-.1-2.6-.5-5.2.2-7.8-.4-1.5 0-3.1-.1-4.6-.1-3.4-.5-6.8.2-10.2-.4-2.2 0-4.4-.1-6.6-.1-3.2-.5-6.5.2-9.7-.4-2.5 0-5-.1-7.5-.1-3.1-.5-6.1.2-9.2-.4-2.7 0-5.3-.1-8-.1-5.7-.2-11.4-.2-17.1 0h-7.7c-2.3-.5-4.6.2-6.8-.3-4.4.3-8.6-.7-12.7-2-6.7-.3-13.3-.3-20 0-13.2 0-26.5.1-39.7.1-7.8 0-15.5-.1-23.3-.1-4.3-.4-8.5-.1-12.8-.2-2.4.1-4.8-.3-7.2.2-.2 1 .7.2.9.6.4.3.9.4 1.3.4-.2 0-.5.1-.8.2-1.1.4-2.2.2-3.3.3-4 .1-8.1-.3-12.1.2-.9.3-1.8.3-2.8.3-2.7 0-5.5-.7-8 .4-1.9.8-3.6.9-5.6.4-2-.5-4-.6-6.1.1-1.6.5-3.5.7-4.9.1-4.4-1.8-8.9-.7-13.4-1-.7-.1-1.5-.1-2.1.2-2.4 1.5-5.1.9-7.7.9-1.1 0-2.1-.4-2.9-1.4-1.1-1.5-2.7-2.2-4.6-2.1-8.2.3-16.4-.5-24.5-.3-3.7.1-7.4.3-11.1.4-2.1.1-4.5.4-5.6 2.8-.5 1.1-1.2.7-2 .4-2.2-.9-4.4-1.8-6.7-2-2.1-.2-4.1-1-6.3-.8-2.5.3-5.1.4-7.6-.3-1.5-.5-2.9-.5-4.4-.2-2.2.5-4.4 1.2-6.8 1-5.2 1-10 3.2-14.9 5-4.9 1.7-9 4-10.6 9.6-.5 1.8-1 3.1.5 4.6 2.2 2.3 3.4 5.6 6.7 7 5.3 2.3 10.6 3.8 16.4 3.9.8.3 1.7-.1 2.5.3H36c4.8-.2 9.6.9 14.3-.8.6-.2 1.2.1 1.3.7.4 1.5 1.8 1.6 3 2 2.6.7 5.3 1 8 1.2.8.3 1.7-.1 2.5.3h3.5c2.3-.5 4.6.1 6.8-.3 3 0 6-.1 8.9-.1 1.6-.5 3.3.1 4.9-.4 1.1 0 2.2-.1 3.2-.1 1.1-.5 2.3.1 3.5-.4.7 0 1.5-.1 2.2-.1 1.9-.5 3.9.1 5.9-.4.9 0 1.8-.1 2.8-.1 1.6-.5 3.3.1 4.9-.4.7 0 1.5-.1 2.2-.1 1.3-.5 2.7.1 4-.4.8 0 1.5-.1 2.3-.1.9-.5 2 0 3-.3 4.3-.4 8.6-.6 12.8-1.3 5.3-.9 10.5-1.7 15.9-1.1 1.1.4 2.4-.1 3.5.4 1.1 0 2.1.1 3.2.1 3.8.2 7.6.3 11.4 0h7.7c2.7.5 5.5-.2 8.3.4 2.5 0 5 .1 7.5.1 2.7.3 5.4.2 8.1 0 9.8 0 19.6-.1 29.5-.1 3.4-.6 6.8.1 10.2-.4 2 0 4-.1 6.1-.1 1.8-.5 3.6.1 5.4-.4.4 0 .9-.1 1.3-.1 3.4-.6 6.8.2 10.2-.4.6 0 1.2-.1 1.8-.1 1.8-.5 3.6.1 5.4-.4 2.5 0 5-.1 7.5-.1 3.4-.5 6.8.1 10.2-.3 3.1 0 6.3-.1 9.4-.1 1.9-.5 3.9.1 5.9-.3 2.7-.2 5.3-.4 8-.6.8-.4 1.7-.2 2.6-.2 3-.1 6 .2 9-.2h1.5c.7.3 1.4.1 2.1.1h74.8c2.6-.6 5.4.2 8-.6 1.1 0 2.1-.1 3.2-.1.8-.4 1.7 0 2.5-.3.6 0 1.2-.1 1.8-.1.8-.4 1.7 0 2.5-.4.9 0 1.8-.1 2.7-.1 1.4-.5 3 .1 4.4-.4.7 0 1.5-.1 2.3-.1.6-.4 1.4.1 2-.5-.6-.8-1.5-.4-2.2-.4-4.7-.1-9.3-.1-14-.1-.9-.3-1.9-.1-2.8-.1-3.7-.1-7.4.3-11.1-.2-6.2 0-12.5.2-18.7-.2-2.1-.1-4.6.4-6.5-1.3-.3-.3-.6-.3-.9-.3-.9.2-1.9.4-2.9.3 2.7-.9 5.5-.3 8.3-.5 4.2-.2 8.5-.2 12.8-.4 4.4-.3 8.9-.3 13.3-.1.9 0 1.9.3 2.5-.4 1.4-1.4 3.3-1.4 5.1-1.6h1.3c2.6-.5 5.2.1 7.8-.3 5.7 0 11.4-.1 17.1-.1.8-.4 1.7-.2 2.6-.2 4.8-.1 9.5.2 14.3-.2 2.4 0 4.7-.1 7.1-.1.7-.4 1.5-.2 2.3-.2 3.6 0 7.2 0 10.9-.1.5 0 1.5.7 1.5-.6-1.1 0-2-.2-3.5-1.1h2.1c.8-.4 1.7 0 2.5-.4 1.7.2 3-1.3 4.7-1.1 1.3-.5 2.6.1 3.9-.3.6 0 1.2-.1 1.8-.1-.2-.9-.8-.7-1.2-.8zM187.1 55.7c-1.1 0-2.1-.6-3.2-.7.4 0 .9 0 1.3.1 1.1 0 2.1-.1 3.2.3 1.3.4 2.5-.1 3.8 0-1.7.1-3.4.3-5.1.3zm99.2 5.2h-.9 7-6.1zm16.8.2c-1.1-.1-2.2-.1-3.3-.2 3 0 5.9.1 8.8.1-1.8.1-3.6.3-5.5.1zm45 .4c-7.8-.1-15.6-.4-23.4-.6 1.1 0 2.2 0 3.3-.2 1.1-.4 2.2-.4 3.3-.4 6 .2 12-.2 18 .4 1.9.2 3.8.1 5.8 0-.1 0-.2.1-.3.1.2.4.4.6.7.8-2.5 0-4.9-.1-7.4-.1zm14.2-1.1c-1 .2-2.2 0-3.4 0 1.2-.1 2.5-.1 3.7 0h-.3z"/><path class="st0" d="M441.6 64.1c-26.6-1-53.2-.8-79.8-1.4-25.7-.6-51.3-1-77-1.5-.1-.1-.2-.2-.1-.3 0-.1.1-.1.1-.1 2.5 0 4.9-.1 7.4-.1 12-.2 24-.3 36-.5 3.3-.3 6.6-.1 9.8-.1 3.1.5 6.2 0 9.3.3 2.5.6 5-.3 7.5.5.6.1 1.2.3 1.9.3 26.2.8 52.5 1.4 78.7 1.2.6 0 1.1-.1 1.7-.1 3.7-.2 7.3-.5 11 .1-2.7.9-5.5.2-8.2.4-.8.1-1.7-.2-2.5.6.9.6 1.8.3 2.6.3h62.7c.9 0 1.9-.4 2.7.4-.8.7-1.8.5-2.7.5-19.4.1-38.7 0-58.1 0-1.2-.1-2.1 0-3-.5zM166.8 55.9c-.4.9-1.1.9-2 .7-2.4-.6-5-.7-7.3-.1-1.8.5-3.4 1.5-5.4 1.2-1.6-.2-2.9-1-4.6-1-1.9 0-3.4 1-5.5.7-4.9-.9-10-1.4-15-1.1-1.2.1-2.2.1-3.3.9-2 1.5-8.4.6-10.2-1.2-1.5-1.5-3.2-2.2-5.5-2.2-5.3.2-10.7.7-15.8-.3-3.4-.7-6.6-.2-9.7.2-2.8.4-5.6-.3-8.3.3-2.3.5-5.2 0-5.9 3.4-.2.8-1 1.1-1.7.5-1-.9-2.5-.8-3.3-1.4-2.6-2-5.9-1.8-8.6-1.8-2.4 0-4.9-1.1-7.3-.1-.2.1-.5.2-.7.1-3.8-2.2-7.5.4-11.3.1-.5 0-1 0-1.3-.4 1.9-.5 3.8-.8 5.6-1.5 3.1-1.3 5.9.1 8.8.8 2.6-.1 5.2 0 7.8-.1.8 0 1.6.1 2.2.6 2.1.1 4.1.6 6 1.4 1.5.6 2.9.9 3.9-1 .3-.6 1-.9 1.6-1.3 1-.6 2.2-.1 3.3-.3 2-.1 4.1.3 6.1-.4.8-.2 1.6-.1 2.3-.1.9-.1 1.7.2 2.6-.2.5 0 1-.1 1.5-.1.9-.6 1.9 0 2.8-.4 1.8.3 3.5.6 5.3.9 2.7.3 5.5.3 8.3.1 3-.2 6-.1 8.9.3 1.4 0 2.8 0 3.3 1.8.3 1 1.1.6 1.7.6 1 .1 2 0 3-.1 3.2-.3 6.3 0 9.5-.1.9 0 1.7.2 2.6-.2h5.4c.8.5 1.8-.1 2.5.5 1.8 1.9 3.8.3 5.7.4 1.6-.6 3.2.1 4.8-.4 1.6-.1 3.2-.1 4.8-.2 2.3-.3 4.5-.1 6.8-.1 1.2-.1 2.4.2 3.7-.2h.5c.4.7 1 .3 1.4.8zM325.3 79.8c17.7 0 35.4-.1 53.1-.1h24.1c2.3-.3 4.5-.4 6.8.1-.7.8-1.6.5-2.5.5h-79c-.9-.1-1.8.2-2.5-.5zM372.2 75c-.5-.1-1-.1-1.7-.2 4.4-1.6 8.8-.6 13.1-.8 7.9-.3 15.9-.7 23.8-.5.7 0 1.4.1 2-.6 1.4-1.7 3.3-1.6 5.2-.9-.1.1-.3.1-.4.2-.3.3-.7.4-1 .4 2.1.5 4.3.2 6.5.3 1.5.4 3.1-.8 4.4.6-.2 0-.3.1-.4.1-.9.4-2-.1-3 .4-1.1 0-2.2.1-3.3.1-3.6.4-7.3.1-10.9.2-4 0-8.1 0-12.1.4-2.5.1-5 0-7.6.1-3.5.1-7-.3-10.5.2h-.9c-1.1.4-2.2.3-3.2 0z"/><path class="st0" d="M441.6 64.1c21.2 0 42.4 0 63.6-.1 1 .2 2-.4 2.9.5-.9.6-1.9.3-2.9.5h-3.4c-1.8-.5-3.5-.1-5.3-.2h-5.1c-1.2-.1-2.4.4-3.6.2-14.7-.5-29.4-.1-44.1-.3-.6 0-1.3.2-1.8-.3l-.3-.3zM195.4 55.3c.3.1.6.1.9.2-4.4.3-8.9 1.3-13.3 0-5.2.1-10.5.5-15.7-.2 3.8-.9 7.7-.1 11.6-.4 1.1-.1 2.2.4 3.2-.4h3.2c1 .4 2 0 3 .3 1.4 0 2.8.1 4.1.1.9.5 2 .1 3 .4zM284.2 53.9h-20c.4-.5 1-.4 1.5-.4h16.9c.6 0 1.2-.1 1.6.4zM468 62c-3.9-.9-7.9-.1-11.8-.4-1-.1-2.1.3-3-.4h17.5c.4 1-.7.5-.9.9-.6-.1-1.2-.1-1.8-.1zM467.5 62.6c-.3.1-.5.4-.8.4-5.6 0-11.2 0-16.8-.5h6.7c2.3-.4 4.7-.1 7-.2 1.3.2 2.6-.2 3.9.3zM490.8 67.3c-1.3-1.1-3 .1-4.3-.9h13.1c-1.1 1.3-2.4.8-3.6.9-1.4-.6-2.9.2-4.2-.4-.3.1-.6.3-1 .4z"/><path class="st0" d="M167.2 55.3c5.2.3 10.5-.4 15.7.2-1.6.8-3.4.3-5.1.4-3.7.1-7.4 0-11.1 0-.5 0-1 .1-1.4-.4.7-.1 1.3-.1 1.9-.2zM110.9 53.5H96.2c-.8 0-1.7.3-2.5-.4 2.7 0 5.4-.1 8.1-.1 2.1-.3 4.1-.3 6.2 0 1 .3 2.1-.3 2.9.5zM328.6 56.3h-17.1c3-.9 6.1-.3 9.2-.3 2.6-.1 5.2-.6 7.9.3zM464.5 71.1c4-.9 8-.2 12.1-.4.9 0 1.9.5 2.6-.5.5 0 1 0 1.4.9h-16.1zM440.6 71.6c5.6-.6 11.2-.3 16.8-.4-1.4.8-2.9.4-4.4.4-4.1.1-8.2 0-12.4 0zM415.5 76.8c-4.7-.1-9.3.2-14-.3h12.2c.6-.1 1.3-.2 1.8.3zM201.1 53.9h-12.7c-.2 0-.3-.2-.3-.3 3.8 0 7.7 0 11.5-.1.5 0 1.1-.1 1.5.4zM443.6 73h-6.7c-.4-.3-1.1 0-1.5-.4-.1-.2 0-.4.2-.4h6.1c.6.4 1.3 0 1.9.3.2.2.2.4 0 .5zM447.9 62.2c-3.7 0-7.3-.1-11-.1 4.1-.7 8.3-.7 12.4 0-.4 0-.9 0-1.4.1zM387 74.6c2.5 0 5-.1 7.5-.1 1.4-.2 2.9-.4 4.3.1-4 .9-8 .2-12.1.3 0-.2.1-.3.3-.3zM131.1 55.5c-4 .6-8 .3-12.1.3 4-.8 8.1-.2 12.1-.3z"/><path class="st0" d="M398.8 74.6c-1.4 0-2.9-.1-4.3-.1 4-.9 8.1-.3 12.1-.3 0 .2-.1.3-.3.3-2.5 0-5 0-7.5.1zM312.2 80.2c3.8-.7 7.7-.4 11.6-.3-3.8.8-7.7.1-11.6.3zM158.7 83.2h11.4c-3.8.6-7.6.6-11.4 0zM424 73.5c-1.5-.9-3.2-.1-4.8-.5 0-.2 0-.3.2-.3h7.1c.4.3 1.1 0 1.5.4.1.2 0 .4-.2.5-1.3-.1-2.5-.1-3.8-.1zM58.4 54.4c-3.3-1-6.7-.2-10-.6 3.1-.7 6.2-.2 9.3-.3.4.1.6.5.7.9zM407.8 58.7c-3.7 0-7.4.3-11.1-.4 3.7.2 7.4-.5 11.1.4z"/><path class="st0" d="m406.3 74.5.3-.3h10.8c-3.7.8-7.4.1-11.1.3zM387 74.6c-.1.1-.2.2-.3.4-3.5 0-6.9 0-10.4.1 2.6-1 5.4-.2 8.1-.5.9-.2 1.8-.1 2.6 0zM428 73.2c-.5-.2-1.1 0-1.5-.5 1.6-.1 3.2-.1 4.7-.2 1.4-.2 2.8-.3 4.2.1.5.1.9.3 1.4.4-.6 0-1.2.1-1.9.1-2.2.3-4.6.3-6.9.1zM419.4 72.6c-.1.1-.1.2-.2.3H411c1.1-.6 2.1-.8 3.1-.8 1.7 1 3.6.2 5.3.5zM379.7 57.7c-3.4 0-6.8.2-10.2-.4 3.4.2 6.8-.5 10.2.4zM231.1 83.5c3.4-.6 6.8-.3 10.2-.4-3.4 1-6.9.3-10.2.4zM278.8 81.6c3.4-.6 6.8-.3 10.2-.3-3.4.8-6.8.2-10.2.3zM254 82.6c3.4-.6 6.8-.3 10.2-.4-3.4.9-6.9.2-10.2.4zM362.9 57.3c-3.2 0-6.5.2-9.7-.4 3.3.1 6.5-.5 9.7.4zM345.8 56.8c-3.1 0-6.2.2-9.2-.4 3 .2 6.1-.5 9.2.4zM193.5 83.7h8.1c-2.7.6-5.4.6-8.1 0zM177.8 83.2c2.8 0 5.5-.2 8.3.4-2.8-.2-5.6.5-8.3-.4zM415.8 72.1c2.6-.7 5.2-.3 7.8-.3-2.6.7-5.2.2-7.8.3zM443.7 72.7c-.6-.2-1.4.1-1.9-.5 2.2 0 4.4-.1 6.6 0 1.2.1.3.4 0 .5-1.6.2-3.1.2-4.7 0zM392.1 58.2c-2.6 0-5.2.2-7.8-.4 2.6.2 5.2-.5 7.8.4zM483.8 65.9c-.9 0-.8-.3-.3-.8 1.5-.7 3-.1 4.5-.3.7.1 1.4-.3 2 .3-2 1-4.3-.4-6.2.8zM424 59.1c-2.6 0-5.2.2-7.8-.3 2.7.1 5.3-.5 7.8.3zM409.3 79.8c-2.3 0-4.5 0-6.8-.1 2.6-.6 5.2-.3 7.7-.3-.3.1-.6.2-.9.4zM161.3 55.8h-7c2.4-.8 4.9-.2 7.3-.3 0 .2-.1.3-.3.3z"/><path class="st0" d="M428 73.2h7c-2.4.9-4.8.2-7.2.4.1-.2.1-.3.2-.4zM188.1 53.6l.3.3c-2.4 0-4.9 0-7.3.1 2.3-1 4.7-.1 7-.4zM463.6 62.5h-6.9l-.3-.3h7.5c-.1.2-.2.3-.3.3zM303.7 56.3c-2.3 0-4.6.3-6.8-.3 2.3 0 4.6-.5 6.8.3zM68.7 88.3c2.3-.6 4.5-.4 6.8-.3-2.2.8-4.5.2-6.8.3zM79.4 53.1c-2.1.8-4.3.3-6.4.3 0-.2.1-.3.3-.3 1.6 0 3.1-.1 4.7-.1.5-.2 1-.4 1.4.1zM108 53h-6.2c2.1-.7 4.2-.7 6.2 0zM98.3 86.9c1.9-.6 3.9-.4 5.9-.4-1.9.9-3.9.2-5.9.4zM298.3 81.1c1.9-.6 3.9-.3 5.9-.3-1.9.8-3.9.2-5.9.3zM439.3 59.6c-2 0-3.9.2-5.9-.3 2 .1 4-.5 5.9.3zM247.3 83.1c1.8-.6 3.6-.3 5.4-.4-1.8.8-3.6.2-5.4.4zM453.2 61.1c-1.8 0-3.6.3-5.4-.4 1.8.1 3.6-.5 5.4.4zM496.6 64.5c1.7.1 3.5-.5 5.2.4-1.7 0-3.5 0-5.2-.1-.1-.1-.2-.2-.1-.2l.1-.1z"/><path class="st0" d="M496.6 64.5v.4h-5.2c-.1-.1-.2-.2-.1-.2 0-.1.1-.1.1-.1 1.7-.1 3.5-.1 5.2-.1zM265.9 82.1c1.8-.6 3.6-.4 5.4-.4-1.7.9-3.6.3-5.4.4zM149.6 56c-1.5.8-3.2.2-4.8.4 1.5-.8 3.2-.4 4.8-.4zM443.7 72.7h4.7c-1.6.8-3.2.2-4.8.4 0-.2.1-.3.1-.4zM107 86.4c1.6-.6 3.3-.4 4.9-.4-1.6.9-3.3.3-4.9.4zM84.5 87.8c1.6-.6 3.3-.4 4.9-.4-1.6.9-3.3.3-4.9.4zM491.9 66.9c1.4.1 2.9-.4 4.2.4-1.4-.3-2.9.6-4.2-.4zM423 78.3c1.4-.5 2.9-.4 4.4-.4-1.4.8-2.9.3-4.4.4zM435.5 72.6c-1.4 0-2.8 0-4.2-.1 1.4-.8 2.9-.2 4.4-.3-.1.1-.2.2-.2.4zM505.2 65c.8-.9 1.9-.3 2.9-.5-.8.9-1.8 1.2-2.9.5zM114.1 85.9c1.3-.6 2.6-.4 4-.4-1.3.9-2.7.3-4 .4zM463.6 62.5l.3-.3h3.7v.4c-1.4 0-2.7-.1-4-.1zM485 67.8c1.3-.6 2.6-.3 3.9-.3-1.2.7-2.5.2-3.9.3zM79.4 53.1c-.5-.1-.9-.1-1.4-.1 1.3-.8 2.6-.3 3.9-.3 0 .2-.1.3-.3.4-.7-.1-1.5-.1-2.2 0zM73.3 53.1l-.3.3c-1.1 0-2.1.1-3.2.1 1.1-1 2.4-.3 3.5-.4zM161.3 55.8c.1-.1.2-.2.3-.4h3.2c-1.1.9-2.3.4-3.5.4zM469.8 62.1l.9-.9c.4 0 1.3-.2 1.1.3-.2 1-1.3.5-2 .6zM152 82.7c1.2 0 2.4-.2 3.5.4-1.2-.1-2.4.4-3.5-.4z"/><path class="st0" d="M491.4 64.5v.3c-.5 0-.9.1-1.4.1-.6 0-1.3-.1-1.9-.1-.1-.1-.2-.2-.1-.2 0-.1.1-.1.1-.1h3.3zM92.6 87.4c1.1-.5 2.3-.4 3.5-.4-1.1.8-2.3.3-3.5.4zM88.4 52.2c-.9.7-1.9.2-2.8.4.9-.6 1.9-.5 2.8-.4zM420.6 74c.9-.6 1.9-.4 3-.4-.9.8-2 .3-3 .4zM120.3 85.4c.9-.5 2-.4 3-.3-.9.7-2 .3-3 .3zM429.6 77.8c.6-.5 1.3-.4 2-.5.2.1 1 .1.2.4-.6.3-1.4.1-2.2.1zM139.1 55.9c-.8-.2-1.7-.3-2.5-.5.8.1 1.8-.4 2.5.5zM81.6 53c.1-.1.2-.2.3-.4h2.2c-.7.7-1.6.3-2.5.4zM446.5 60.6c-.7-.3-1.4-.5-2-.8.7 0 1.7-.5 2 .8zM413.4 79.2c.8-.5 1.7-.4 2.5-.3-.7.7-1.7.3-2.5.3zM417.7 78.8c.8-.5 1.7-.4 2.5-.4-.7.7-1.6.3-2.5.4zM32.2 84.6c.9 0 1.7-.1 2.5.3-.9 0-1.8.4-2.5-.3zM62.7 88c.8 0 1.7-.1 2.5.3-.8 0-1.7.3-2.5-.3zM477.9 69.2c.8-.5 1.6-.4 2.5-.4-.8.7-1.7.4-2.5.4z"/><path class="st0" d="M488 64.5v.3c-1.5 0-3.1.1-4.6.1-13.5 0-27-.1-40.5-.1h-2.7c.5-.7 1.2-.3 1.6-.5 15.4.2 30.8.2 46.2.2zM354.7 60.7c-2.5 0-5-.1-7.5-.1-3.1-.5-6.2.2-9.2-.4-3.3 0-6.6-.1-9.8-.1.6-.6 1.3-.4 2-.4 11-.3 22 .7 33.1.5.2 0 .4.1.7.5h-9.3zM372.2 75h3.3c-1.2 1-2.3.6-3.3 0zM188.2 54.8c-1 0-2.1.1-3-.3 1 .1 2.1-.4 3 .3zM195.4 55.3c-1 0-2.1.2-3-.3 1 0 2-.4 3 .3zM282.3 60.6v.5c-.7 0-1.4.2-2.1-.3.7-.4 1.4-.2 2.1-.2z"/><path class="st0" d="M338 60.2c3.1.1 6.2-.5 9.2.4-3.1 0-6.2.2-9.2-.4zM282.3 69.9c0 3.7-1.4 5.6-3.9 5.7-1.4.1-2.4-.5-3.2-1.6-1.4-2-1.4-5.9 0-7.9 1.6-2.3 4.8-2.2 6.3.2.7 1.1.9 2.4.8 3.6z"/><path d="M304.1 69.8c2.3-.3 2.4.8 1.8 2.6-.8 2.3-2.3 3.4-4.6 3.2-1.6-.1-2.5-1-2.7-2.5-.2-1.5.7-2.6 2.2-2.9 1.1-.2 2.2-.3 3.3-.4z" style="fill:#61b665"/><path d="M97.2 68.7c-.6 0-1.1.1-1.7 0-.7-.1-1.8.5-2.2-.4-.4-1 .3-1.8.9-2.6 1.8-2.1 5.8-1.7 6.9.7.6 1.3.8 2.5-1.3 2.3h-2.6z" style="fill:#61b565"/><path d="M167.3 68.7h-2.1c-.7-.1-1.6.4-2-.3-.4-.7.2-1.5.6-2.2 1-1.6 2.6-2 4.4-1.8 1.5.2 2.4 1 3 2.3.6 1.4.4 2.1-1.3 2h-2.6z" style="fill:#60b564"/><path class="st0" d="M286.3 60.9h-.9.9z"/><path class="st4" d="M310.4 12.4c2.1 0 4.1.1 6.2.1 1.5.5 3.1-.1 4.6.3 1.3.1 2.7.1 4 .2 1.1.4 2.2-.2 3.3.4.1.8.6.9 1.3.9 2.7 0 5.3 0 8 .1 3 .4 6 0 8.9.2.4 0 1.4-.7 1.4.6-2 .2-4.1.4-6.1.6-1.6.2-3.3.2-4.9 0-3.3-.1-6.5-.4-9.8-.1-2.1-.3-4.1-.3-6.2 0-7.6-.1-15.2-.2-22.9.1-.5.5-1.3.6-2 .8-1.4.1-2.8 0-4.2.1 6.4-.2 12.8 0 19.2 0 .3 0 .5 0 .8-.1 1.5.5 3.1-.1 4.6.3 1.5 0 2.9.1 4.4.1.9.4 1.9 0 2.8.3 9.3 0 18.6.1 28 .1 2.6.4 5.3 0 7.9.2.3.1.4.3.3.6-.6.2-1.3-.1-1.9.5.7.9 1.6 1 2.7 1 .9.4 1.8.1 2.7.2.2.1.3.3.1.6-.7.1-1.5.1-2.2.2-.9.4-1.9-.1-2.8.3-1.9.9-4 1.3-6.1 1.4-.3 0-.8-.2-.8.4 0 .2.4.4.6.5-1.8.9-3.7.2-5.5.5-.8.1-1.6-.2-2.4.1-.1.2-.2.3-.4.3-1.2 0-2.3.1-3.5.1-3.5.4-7-.2-10.5.3-3.4 0-6.8.1-10.2.1-3.7.4-7.4.1-11 .2-.9 0-1.8-.2-2.7.2-1.6-.2-3 .3-4.5.7v.2c0 .1.1.1.2.1 1.5.2 3 .3 4.5 0 .8-.1 1.5-.1 2.3-.2 1.3-.3 2.5-.1 3.8-.1.4.1 1.1-.3 1.1.6-.3.1-.6.1-.9.2-1 .4-2.1-.2-3.1.4-.3 0-.6.1-1 .1-1.3.3-2.7.1-4 .1-2.3.1-4.5-.2-6.8.2-.6.1-1.2.1-1.8.2-2.1.4-4.3-.2-6.5.3-2.7 0-5.3.1-8 .1-2.1.4-4.3-.2-6.5.3h-1.2c-.8.5-1.7.1-2.6.2h-1.7c.4.2 1 0 1.7 0 .9.1 1.7-.1 2.6.1 1.7.4 3.5.7 5.3.6.2.1.3.2.5.3 2.3 0 4.6.6 6.9.2h15.2c.3.2.3.4 0 .6-3 .1-6 0-8.2 0 3.8.2 8.5-.2 13.2-.2 1 0 2-.2 2.8.6.2.2.2.5 0 .7-2.8.3-5.6.7-8.5 1-2.4.5-4.9-.2-7.4.4h-52.2c-5.9-.4-11.9-.1-17.8.2-.1.2-.2.3-.4.3-1.7-.2-3.2.7-4.8.6-1.8.4-3.7-.2-5.5.3-1.9 0-3.8.1-5.7.1-2.7.5-5.5-.2-8.3.3-2.8 0-5.6.1-8.4.1-.9.3-1.9-.1-2.8.3-.4 0-.8.1-1.3.1-2 .4-4-.2-6 .3-1-.2-2-.1-3 .1-1.1.4-2.2-.1-3.3.3-1.3 0-2.6.1-3.9.1-2.1.5-4.3-.2-6.5.3h-23.4c-4.3.1-8.7.1-13 0h-5.7c-.2 0-.3-.1-.4-.3-6.3-.1-12.7-.1-19 0-.4.1-.7.2-1.1 0-.6 0-1.1-.1-1.7-.1-.9-.5-1.9 0-2.8-.3-.5 0-1-.1-1.6-.1-7.4.4-14.8-.6-22.2-.5-.2 0-.3-.1-.4-.3-4.4-.2-8.8-.6-13.3-.2-2.1.1-4-.7-6.3-1.1.9-1.1 2.4-.9 3-2-1.1-.4-2.1-.3-3.2 0-2.7-.2-5.3.9-8 1-1.8.5-3.7-.2-5.6.3-2.1 0-4.1.1-6.2.1-.7.4-1.8-.3-2.2.8-1.2 1.7-2.7 2.7-4.9 2.7-.7-.4-1.6 0-2.4-.3-5.4-2.3-10-5.7-13.2-10.6-4.2-6.4-1.5-13.1 5.2-16C19 7.7 23 7.2 26.9 6.5c1.2-.4 2.5.1 3.7-.3h15.1c1.5.5 3.1-.1 4.6.3.9 0 1.7.1 2.6.1.9.4 1.9 0 2.8.3 4.2 0 8.3.1 12.5.1.9.4 1.9 0 2.9.3 1.3 0 2.6.1 3.9.1.3.1.3.3.1.5-.3.1-.6.1-.7.1 2.6-.5 5.4 0 8.1-.3.2-.1.4-.1.6 0 2.1 0 4.1.1 6.2.1 3.4.4 6.7.1 10.1.2.9 0 1.8-.1 2.7.1 3.6 0 7.1.1 10.7.1 3.3.3 6.5.4 9.8-.1 1.6-.2 3.1-.1 4.7 0 .9.2 1.8.4 2.8.4.5 0 1.6.8 1-.7 1.9-1 3.9-.5 5.9-.4 1.9.1 3.8.2 5.7 0h4.6c4.4.3 8.7.1 13.1.1 12.7 0 25.4-.4 38.1-.2 1 0 2-.1 2.9.1 3.3 1.3 6.7 1.9 10.3 1.8.2 0 .3.1.3.2 2.6.3 5.2.1 7.8.1.2-.1.4-.1.6 0h.9c.3-.1.5-.1.8 0 4.7.1 9.5.1 14.2 0 .3-.1.5-.1.8 0 1.9 0 3.8.1 5.7.1 2.1.5 4.3-.1 6.5.3 1.9 0 3.8.1 5.7.1 2 .5 4-.1 6 .3 2.1 0 4.1.1 6.2.1.2 0 .3.2.3.4 0 0-.1.1-.2.1-.2 0-.2 0-.2-.1 2.5-.2 5 .1 7.5 0h4.8c1.2.5 2.5-.1 3.8.3 1.6 0 3.2.1 4.8.1 2.9.5 5.8-.1 8.7.3 2.2 0 4.4.1 6.6.1 2.5 1 4.8.4 7.1.8z"/><path class="st4" d="M201.6 7.6c-.6.6-1.4.3-2.2.3h-49.8c-.7 0-1.5.2-2.2-.4 8.7-.1 17.4-.1 26.2-.2 7.2-.3 14.5-.1 21.7-.1 2.1 0 4.2-.2 6.3.2v.2zM142.9 7.6c-2.9.8-5.8.2-8.7.4-1 .1-2.1-.1-3.1.5-.8.7-1.8.4-2.7.4-2.1-.4-4.3.2-6.3-.8-.4-.1-.9-.1-1.3-.2s-.6-.3-.4-.7h9.7c2.4.5 4.9-.1 7.4.3 1.8 0 3.6 0 5.4.1zM309.6 31c-2.5-.9-5.1-.4-7.6-.5-3.4-.1-6.7 0-10.1-.5h10c5.1-.3 10.3-.1 15.4-.1.4 0 .8 0 .6.6-.2 0-.5.1-.7.1-.8.4-1.7 0-2.4.4-1 0-2 .1-3 .1-.8.1-1.5.2-2.2-.1z"/><path class="st4" d="M201.6 7.4h-28c.5-.5 1.1-.4 1.7-.4h24.6c.6 0 1.2-.1 1.7.4zM360.1 17.9c-2.7-.3-5.5.3-8.2-.4h20.3c.2.3.1.5-.2.6-1.9.2-3.8-.2-5.7.2-1.4 0-2.7 0-4.1-.1-.6-.3-1.5.2-2.1-.3zM311.3 16.6c-.3.4-.8.4-1.2.4h-19.3c-.5 0-1.8.3-.6-.9 2.6.5 5.2.1 7.8.1 4 .4 8-.1 12 .3.4 0 .8.1 1.3.1zM100.9 36c.3 0 .6-.1.9-.1 6.4-.2 12.9-.4 19.3.1l.3.3h-19c-.5.1-1.1.1-1.5-.3zM223.4 32.8c-.3 0-.6-.1-.9-.1v-.3h17.7c.3 0 .7.2 1 .4-4.2.1-8.4.1-12.6.2-1.7.1-3.4.1-5.2-.2zM317.9 30.5c-1-.8-2.1-.4-3.2-.4-4.2-.1-8.5-.1-12.7-.1l-.3-.3h15.4c.5 0 1.4-.4 1.4.7 0 0-.4 0-.6.1zM122.1 8c2.1.2 4.2.3 6.2.5.2.4.1.5-.4.4-5-.2-10 .2-15-.5 3.1-.3 6.2.5 9.2-.4zM222 9.8c-.2-.1-.3-.1-.5-.2 3-.8 6.1-.3 9.1-.3 2.2 0 4.5-.5 6.6.3-.2.1-.3.1-.5.2-4.8.3-9.8.3-14.7 0zM59 34.5c2.3-.8 4.6-.3 6.9-.3 2.3-.1 4.6 0 7 0 0 0 .1.1.1.2-.2.1-.3.2-.5.3-1.6.3-3.2.2-4.9 0-2.9-.1-5.8-.1-8.6-.2z"/><path class="st4" d="M310 16.4h-12.2c-.4-.3-1.1.1-1.5-.4.6-.4 1.3-.3 2-.3 2.8.8 5.6.1 8.4.4 1.1.1 2.2-.4 3.3.3zM306.2 25.1c4.6-.6 9.1-.3 13.7-.3-1.8.8-3.6.3-5.5.4-2.7 0-5.5-.1-8.2-.1zM127.1 36.3c4.3-.6 8.7-.6 13 0-.3.1-.6.1-.9.2-3.8.2-7.5.2-11.3 0-.2-.1-.5-.1-.8-.2zM344.4 23.8c-.4-.2-1.1-.5 0-.5 2.7-.1 5.4 0 8 0 .4 0 .9 0 1.3.1.3.1.5.4.8.5-.3.1-.7.1-1 .2-3-.5-6.1.2-9.1-.3zM363.7 20.2c-.9-.2-2 .2-2.9-.4h10.4c-1.5.7-2.7 1-4 .8-1.1-.6-2.4.1-3.5-.4zM102.3 8.3c-4.3 0-8.6.3-12.8-.3h11.1c.6-.1 1.2-.2 1.7.3zM348.1 15.1c-2-.9-4.1-.3-6.1-.5-1.4-.2-2.8.2-4.2-.3H348c.4 0 1-.2.9.6 0 .1-.5.1-.8.2zM328.5 13.4c-1.1-.2-2.2.3-3.3-.4h12.2c.1.1.2.2.1.3-.1.1-.1.1-.2.1-2.8-.1-5.8 0-8.8 0zM324.1 25.1c2.5.1 5.1-.3 7.7.2-.6 1-1.3.6-1.8.7-.6.1-1.3 0-2 0-.9-.3-1.7-.1-2.6-.2-.4 0-.9 0-1.3-.1-.3-.2-.3-.4 0-.6z"/><path class="st4" d="M128 36.5h11.3c-3.8.6-7.5.6-11.3 0zM330.1 24.6c3.5-.6 7-.3 10.5-.3-3.4.8-7 .2-10.5.3zM313.5 26.4c-.3-.1-.6-.3-.9-.4 0-.2 0-.3.2-.3h4.9c.4.3 1 0 1.4.4.1.2 0 .4-.2.4-1.8-.1-3.6-.1-5.4-.1zM274.7 11.2c-3 .9-6 .1-9.2.4.8-.7 1.5-.3 2.1-.6 1.8-.3 3.5-.2 5.3 0 .6.1 1.2.1 1.8.2zM344.4 23.8c3 .1 6.1-.2 9.1.3h-9.3c0-.1.1-.2.2-.3zM220.6 9.7c-.2.1-.3.1-.5.2-2.7.2-5.4.4-8-.1-.1-.1-.2-.2-.3-.4 2.9.1 5.9-.5 8.8.3zM296.9 11.9c-2.9 0-5.8.2-8.7-.3 2.8.1 5.8-.5 8.7.3zM75.3 7.9l-.3-.3c2.8.1 5.5-.5 8.3.3-.1 0-.3.1-.4.1-2.6.2-5.1.4-7.6-.1zM198.7 34.5c2.7-.6 5.5-.3 8.3-.3-2.7.8-5.5.2-8.3.3z"/><path class="st4" d="M319.1 26.1c-.5-.1-.9-.3-1.4-.4 1.2-.1 2.4-.1 3.6-.2.9-.2 1.8-.2 2.6 0 .5.1.9.1 1.4.2v.3c-.8 0-1.5.1-2.3.1-1.3.2-2.6.2-3.9 0zM286.5 29.7c-2.4.7-4.8.3-7.2.2v-.2c0-.1.1-.1.1-.2 1.2-.3 2.3-.2 3.5 0 1.2.1 2.4.1 3.6.2zM137.5 7.4c-2.5 0-4.9.2-7.4-.3 2.5.1 4.9-.5 7.4.3zM293.5 32.7c2.4-.5 4.9-.3 7.4-.4-2.4.9-4.9.3-7.4.4zM297.8 27.3c2.3-.8 4.6-.3 6.9-.3 0 .2-.1.3-.3.3h-6.6zM310.4 12.4c-2.3 0-4.6.2-6.9-.3 2.3.1 4.6-.5 6.9.3zM366.3 18.3c1.9-.8 4-.2 5.9-.5.3-.2.6-.2.9.1-2.2.9-4.5.2-6.8.4zM249.4 10.1c-2.2 0-4.3.2-6.5-.3 2.2.1 4.4-.5 6.5.3zM163.5 36.3c2.1-.5 4.3-.4 6.5-.3-2.1.8-4.3.2-6.5.3zM275 28.2c2.1-.5 4.3-.3 6.5-.3-2.1.8-4.3.2-6.5.3zM289.5 27.8c2.1-.5 4.3-.3 6.5-.3-2.2.7-4.4.2-6.5.3zM261.2 10.6c-2 0-4 .2-6-.3 2 .1 4-.5 6 .3zM321.1 15.6c2.1-.5 4.1-.4 6.2 0h-6.2zM337.4 13.3c0-.1.1-.3 0-.4 1.1-1 2.4-.2 3.6-.4-1.1.5-2.3 1-3.6.8zM180.2 35.4c2-.5 4-.3 6-.3-1.9.8-4 .2-6 .3zM223.4 32.8h5.3c-1.8.8-3.7.2-5.5.3 0 0 .1-.1.2-.3zM38.9 32.7c1.8-.5 3.7-.3 5.6-.3-1.8.8-3.7.2-5.6.3zM212.8 34.1c1.8-.5 3.7-.3 5.5-.3-1.8.7-3.7.2-5.5.3zM272.9 11h-5.3l-.3-.3c1.9.1 3.8-.5 5.6.3zM67.5 34.7h4.9l.3.3c-1.7-.1-3.5.4-5.2-.3zM337.1 15.7h4.9c-1.6.6-3.3.6-4.9 0zM306.3 26.1c-1.5.6-3 .6-4.5 0h4.5z"/><path class="st4" d="M373.2 17.9c-.3 0-.6-.1-.9-.1v-.3h4v.3c-1.1 0-2.1.1-3.1.1zM316.7 16.9c-1.5 0-3.1.2-4.6-.3 1.5 0 3.1-.4 4.6.3zM50.3 6.5c-1.5 0-3.1.2-4.6-.3 1.6.1 3.2-.4 4.6.3zM321.2 12.8c-1.6 0-3.1.2-4.6-.3 1.5.1 3.1-.4 4.6.3zM312.8 25.6c-.1.1-.1.2-.2.3h-3.9c1.3-.7 2.7-.2 4.1-.3zM304.4 27.3l.3-.3h3.9c-1.4.7-2.8.2-4.2.3zM319.1 26.1h4c-1.3.8-2.8.2-4.2.3 0-.1.1-.2.2-.3zM30.6 6.2c-1.2.5-2.5.4-3.7.3 1.2-.7 2.5-.2 3.7-.3zM282.9 29.5h-3.5c-.1-.1-.1-.2-.2-.3 1.2.1 2.5-.4 3.7.3zM363.7 20.2c1.2 0 2.4-.4 3.5.4h-3.5v-.4zM283.3 11.5c-1.3 0-2.5.2-3.8-.3 1.3 0 2.6-.5 3.8.3zM309.6 26.9c1-.6 2.1-.4 3.1-.4-1 .7-2.1.3-3.1.4zM52.5 31.4c1.1-.3 2.1-.6 3.2 0h-3.2zM173.9 35.9c1.1-.5 2.2-.3 3.3-.3-1 .7-2.2.2-3.3.3zM273.8 28.6h-2.6c-.2-.1-.3-.1-.2-.2.1-.1.1-.1.2-.1.9 0 1.8 0 2.7-.1-.1.2-.1.3-.1.4zM187.5 35c.9-.5 1.8-.4 2.8-.3-.9.6-1.9.2-2.8.3zM325.3 25.9v-.3c.9 0 1.9-.4 2.7.3h-2.7zM323.9 25.5h-2.6c.9-.7 1.9-.3 2.8-.3-.1 0-.1.2-.2.3zM358.7 21c.9-.6 1.8-.4 2.8-.3-.9.6-1.9.2-2.8.3zM323.9 17.4c-1 0-1.9.1-2.8-.3 1 0 2-.5 2.8.3zM96.4 35.6c1 0 1.9-.1 2.8.3-.9-.1-1.9.4-2.8-.3zM30.5 33.7c.3-1.5 1.4-.7 2.2-.8-.7.2-1.4.5-2.2.8zM120.4 7.1c.1.2.3.5.4.7-.5 0-1.2.4-1.4-.3-.1-.2.5-.5 1-.4zM71.1 7.4c-1 0-2 .2-2.9-.3 1 0 2-.4 2.9.3zM55.8 7c-1 0-1.9.1-2.8-.3.9 0 1.9-.4 2.8.3zM23.3 36c.8-.1 1.6-.1 2.4.3-.8 0-1.7.4-2.4-.3zM360.1 17.9c.7 0 1.5-.3 2.2.4h-2.2v-.4zM309.6 31h2.1c-.7.6-1.6.3-2.4.3.2 0 .3-.1.3-.3zM314.8 30.9c.8-.4 1.6-.4 2.4-.4-.7.8-1.6.4-2.4.4zM121.1 36c-6.4 0-12.9-.1-19.3-.1.3-.1.5-.4.8-.4h19.5c-.2.6-.7.3-1 .5zM222 9.8c4.9-.1 9.9-.2 14.8 0-3.3.8-6.7.2-10 .3-1.6.1-3.3.5-4.8-.3zM238.2 13.8h-10.7c-.2-.1-.3-.1-.2-.2.1-.1.1-.1.2-.1h10.7c.2.1.2.1.2.2-.1 0-.2.1-.2.1zM75.3 7.9c2.5 0 5 .1 7.5.1-3.3.9-6.6.1-10.4.5 1.3-.8 2.2-.4 2.9-.6zM212.1 9.7c2.7 0 5.3.1 8 .1-3 .8-6 .1-9.3.4.1-.1.3-.6.5-.4.1.1.5 0 .8-.1zM296.3 16c.5.1 1.1 0 1.5.4-2.5-.1-5.1.6-7.6-.4 2 .1 4.1 0 6.1 0zM128 8.9c.1-.1.2-.3.4-.4.9 0 1.9 0 2.8-.1l1.2.8c-1.7.1-3 .4-4.4-.3z"/><path class="st4" d="M238.2 13.8v-.3h4c-1.4.4-2.7.3-4 .3zM227.4 13.4v.3c-.8.1-1.6.2-2.4-.1.8-.4 1.6-.2 2.4-.2zM271.2 28.3v.3c-.6.1-1.3.2-1.9-.1.6-.4 1.2-.3 1.9-.2z"/><path d="M122.6 69.3v-2.8h7.3v6.7c-.7.7-1.7 1.3-3.1 1.8s-2.7.8-4.1.8c-1.8 0-3.3-.4-4.6-1.1-1.3-.7-2.3-1.8-2.9-3.2s-1-2.9-1-4.5c0-1.7.4-3.3 1.1-4.7s1.8-2.4 3.2-3.1c1.1-.6 2.4-.8 4-.8 2.1 0 3.7.4 4.9 1.3 1.2.9 1.9 2.1 2.3 3.6l-3.4.6c-.2-.8-.7-1.5-1.3-2-.7-.5-1.5-.7-2.4-.7-1.5 0-2.7.5-3.5 1.4s-1.3 2.3-1.3 4.2c0 2 .4 3.5 1.3 4.5s2 1.5 3.5 1.5c.7 0 1.4-.1 2.1-.4.7-.3 1.3-.6 1.8-1v-2.1h-3.9zM132.4 67.2c0-1.7.3-3.1.8-4.3.4-.9.9-1.6 1.6-2.3s1.4-1.2 2.2-1.5c1-.4 2.3-.7 3.6-.7 2.5 0 4.4.8 5.9 2.3 1.5 1.5 2.2 3.7 2.2 6.4s-.7 4.8-2.2 6.4c-1.5 1.5-3.4 2.3-5.9 2.3-2.5 0-4.5-.8-6-2.3-1.5-1.6-2.2-3.7-2.2-6.3zm3.5-.2c0 1.9.4 3.3 1.3 4.3s2 1.5 3.3 1.5c1.4 0 2.5-.5 3.3-1.5s1.3-2.4 1.3-4.4c0-1.9-.4-3.4-1.3-4.3-.8-.9-2-1.4-3.4-1.4s-2.5.5-3.4 1.4-1.1 2.5-1.1 4.4zM155.6 75.4l-6-16.8h3.7l4.2 12.4 4.1-12.4h3.6l-6 16.8h-3.6zM166.9 75.4V58.7h12.4v2.8h-9.1v3.7h8.4V68h-8.4v4.6h9.4v2.8h-12.7zM182.6 75.4V58.7h7.1c1.8 0 3.1.2 3.9.5s1.5.8 2 1.6.7 1.7.7 2.6c0 1.3-.4 2.3-1.1 3.1-.7.8-1.8 1.3-3.3 1.6.7.4 1.3.9 1.8 1.4.5.5 1.1 1.4 1.9 2.7l2 3.3h-4.1l-2.4-3.7c-.9-1.3-1.5-2.1-1.8-2.5-.3-.3-.7-.6-1-.7-.4-.1-.9-.2-1.7-.2h-.6v7h-3.4zm3.4-9.6h2.5c1.6 0 2.6-.1 3-.2.4-.1.7-.4.9-.7.2-.3.3-.8.3-1.3 0-.6-.2-1-.5-1.4s-.7-.6-1.3-.7c-.3 0-1.1-.1-2.5-.1H186v4.4zM199.5 75.4V58.7h3.3l6.9 11.2V58.7h3.1v16.8h-3.4l-6.8-10.9v10.9h-3.1zM216.4 75.4V58.7h5.1l3 11.4 3-11.4h5.1v16.8h-3.1V62.2l-3.3 13.2h-3.3l-3.3-13.2v13.2h-3.2zM235.9 75.4V58.7h12.4v2.8h-9.1v3.7h8.4V68h-8.4v4.6h9.4v2.8h-12.7zM251.6 75.4V58.7h3.3l6.9 11.2V58.7h3.1v16.8h-3.4l-6.8-10.9v10.9h-3.1zM272.3 75.4V61.5h-5v-2.8h13.3v2.8h-5v13.9h-3.3zM288.6 67.2c0-1.7.3-3.1.8-4.3.4-.9.9-1.6 1.6-2.3.7-.7 1.4-1.2 2.2-1.5 1-.4 2.3-.7 3.6-.7 2.5 0 4.5.8 5.9 2.3 1.5 1.5 2.2 3.7 2.2 6.4s-.7 4.8-2.2 6.4c-1.5 1.5-3.4 2.3-5.9 2.3-2.5 0-4.5-.8-6-2.3-1.4-1.6-2.2-3.7-2.2-6.3zm3.5-.2c0 1.9.4 3.3 1.3 4.3s2 1.5 3.3 1.5c1.4 0 2.5-.5 3.3-1.5.9-1 1.3-2.4 1.3-4.4 0-1.9-.4-3.4-1.3-4.3-.8-.9-2-1.4-3.4-1.4s-2.5.5-3.4 1.4-1.1 2.5-1.1 4.4zM307.6 75.4V58.7h11.5v2.8H311v4h7v2.8h-7v7.1h-3.4zM328.3 75.4V58.7h3.4v16.8h-3.4zM334.9 75.4V58.7h3.3l6.9 11.2V58.7h3.1v16.8h-3.4L338 64.6v10.9h-3.1zM351.8 58.7h6.2c1.4 0 2.5.1 3.2.3 1 .3 1.8.8 2.5 1.5s1.2 1.6 1.6 2.7c.4 1.1.5 2.4.5 4 0 1.4-.2 2.6-.5 3.6-.4 1.2-1 2.2-1.8 3-.6.6-1.4 1-2.4 1.3-.7.2-1.7.4-3 .4h-6.4V58.7zm3.4 2.8v11.1h2.5c.9 0 1.6-.1 2-.2.5-.1 1-.4 1.4-.7.4-.3.7-.9.9-1.6.2-.8.3-1.8.3-3.1s-.1-2.3-.3-3c-.2-.7-.5-1.2-1-1.6-.4-.4-.9-.7-1.6-.8-.5-.1-1.4-.2-2.8-.2h-1.4zM368.6 75.4V58.7h3.4v16.8h-3.4zM390.4 75.4h-3.7l-1.5-3.8h-6.7l-1.4 3.8h-3.6l6.5-16.8h3.6l6.8 16.8zm-6.3-6.6-2.3-6.2-2.3 6.2h4.6z"/><path class="st5" d="M190.6 22.6h-3.3v21h-2.6v-8.8h-8.2v2.7c0 .2-.1.3-.2.5s-.2.3-.3.4c-.1.1-.3.1-.5.1s-.5-.1-.9-.2c-.3-.2-.7-.4-1-.6-.3-.3-.7-.5-1-.9-.3-.3-.6-.7-.9-1-.3-.4-.5-.7-.6-1.1-.2-.4-.2-.7-.2-1 0-.4.2-.8.5-1 .3-.2.7-.3 1.2-.3h1.5V24c0-.5-.1-1-.4-1.2-.3-.3-.6-.4-1-.4s-.8.2-1.1.5c-.3.3-.4.7-.4 1.2v.3c0 .1.1.3.2.5s.2.4.4.6l.7.7-1.4 1.7c-.5-.3-.9-.5-1.2-.9s-.5-.6-.7-1-.3-.7-.3-1c-.1-.3-.1-.6-.1-.9 0-.5.1-1 .3-1.5.2-.5.4-.9.8-1.3.3-.4.8-.7 1.3-.9.5-.2 1.1-.4 1.8-.4.6 0 1.1.1 1.6.3s.9.5 1.2.9c.3.4.6.8.7 1.3s.2 1.1.2 1.7v8.4h8.2V20.3h5.8v2.3z"/><path class="st5" d="M198.9 22.6h-3.3v21H193v-21h-3.6v-2.3h9.4v2.3z"/><path class="st5" d="M214.5 22.6h-5.9c.5.9 1 1.8 1.3 2.8.3 1 .5 1.9.5 2.9 0 .7-.1 1.4-.3 2.1-.2.7-.6 1.3-1 1.8s-1 1-1.6 1.3c-.6.3-1.4.5-2.2.6v.1c.9 1.5 2 2.8 3.2 4.1 1.2 1.3 2.5 2.5 4 3.7l-1.7 1.9c-.9-.7-1.7-1.4-2.5-2.1-.8-.8-1.5-1.6-2.3-2.4-.7-.8-1.4-1.6-2-2.5-.6-.8-1.2-1.7-1.7-2.5s-1-1.6-1.4-2.3c-.4-.7-.7-1.4-1-2l2.1-1.2c.4.8.8 1.4 1.3 1.9s1 .7 1.6.7c.4 0 .8-.1 1.2-.3.4-.2.7-.5.9-.9s.4-.8.5-1.2c.1-.4.2-.9.2-1.3 0-.5-.1-1-.2-1.4s-.3-.9-.5-1.4-.4-.9-.7-1.3c-.2-.4-.5-.8-.7-1.2h-8v-2.3h16.7v2.4z"/><path class="st5" d="M234.1 22.6h-3.3v21h-2.5V29.9h-5.1c-.7 0-1.3 0-1.9.1s-1 .3-1.4.5c-.4.3-.7.6-.9 1.1-.2.5-.3 1.1-.3 1.9 0 1 .2 1.9.5 2.8.3.8.7 1.6 1.3 2.3.5.7 1.1 1.4 1.7 1.9s1.2 1.1 1.8 1.6l-1.6 1.8c-.1-.1-.3-.2-.7-.5s-.8-.6-1.2-1c-.5-.4-1-1-1.5-1.6-.5-.6-1-1.3-1.4-2.1-.4-.8-.8-1.7-1.1-2.6-.3-.9-.4-2-.4-3.1s.2-2 .5-2.7c.3-.7.7-1.3 1.3-1.7.6-.4 1.2-.7 2-.9.8-.2 1.7-.2 2.7-.2h5.7v-5h-14.8v-2.3h20.7v2.4zM269.2 20.3v2.3h-3.3v21h-2.6V33.1h-9c-.6.4-1.2.6-2 .7v.1c1 1.6 2.1 3.1 3.3 4.4 1.2 1.4 2.6 2.6 4.1 3.8L258 44c-.9-.7-1.7-1.4-2.5-2.1-.8-.8-1.5-1.5-2.2-2.4-.7-.8-1.4-1.6-2-2.5-.6-.8-1.2-1.7-1.7-2.5s-1-1.6-1.4-2.3c-.4-.8-.8-1.5-1.1-2.1l2.1-1.2c.2.5.4.8.6 1.1s.4.6.6.7c.2.2.4.3.6.4.2.1.5.1.7.1.7 0 1.2-.3 1.6-.8.3-.6.5-1.3.5-2.2 0-.5-.1-1.1-.2-1.6s-.2-1-.4-1.5-.3-.9-.5-1.4c-.2-.4-.4-.8-.5-1.2H245v-2.3h24.2zm-5.9 2.3H255c.4.9.8 1.9 1 2.9.2 1 .4 1.9.4 2.9 0 .4 0 .9-.1 1.3l-.3 1.2h7.3v-8.3z"/><path class="st5" d="M284.8 22.6H279c.5.9 1 1.8 1.3 2.8.3 1 .5 1.9.5 2.9 0 .7-.1 1.4-.3 2.1s-.6 1.3-1 1.8-1 1-1.6 1.3c-.6.3-1.4.5-2.2.6v.1c.9 1.5 2 2.8 3.2 4.1 1.2 1.3 2.5 2.5 4 3.7l-1.7 1.9c-.9-.7-1.7-1.4-2.5-2.1-.8-.8-1.5-1.6-2.3-2.4-.7-.8-1.4-1.6-2-2.5-.6-.8-1.2-1.7-1.7-2.5s-1-1.6-1.4-2.3c-.4-.7-.7-1.4-1-2l2.1-1.2c.4.8.8 1.4 1.3 1.9s1 .7 1.6.7c.4 0 .8-.1 1.2-.3.4-.2.7-.5.9-.9s.4-.8.5-1.2c.1-.4.2-.9.2-1.3 0-.5-.1-1-.2-1.4-.1-.5-.3-.9-.5-1.4-.2-.5-.4-.9-.7-1.3-.2-.4-.5-.8-.7-1.2h-8v-2.3h16.7v2.4z"/><path class="st5" d="M312.4 22.6h-13.2v6.1h.1c.5-.7 1.2-1.3 2-1.8.8-.4 1.7-.7 2.6-.7.7 0 1.4.2 2.1.5.6.3 1.2.7 1.7 1.3.5.5.8 1.2 1.1 1.9s.4 1.5.4 2.4c0 1-.2 1.8-.5 2.6s-.8 1.5-1.3 2.2-1.1 1.2-1.8 1.7-1.3.9-1.9 1.3l-1.4-2.4c.2-.1.5-.3.8-.5.3-.2.6-.4.9-.7.3-.2.7-.5 1-.9s.6-.7.9-1 .5-.8.6-1.2c.2-.4.2-.9.2-1.4 0-.4-.1-.9-.2-1.3s-.3-.8-.6-1.1-.5-.5-.9-.7c-.3-.2-.7-.3-1.1-.3-.5 0-1.1.1-1.6.4-.5.3-1 .6-1.4 1.1s-.8.9-1.1 1.4c-.3.5-.5.9-.6 1.3v10.6h-2.6v-6h-.1c-.2.1-.4.3-.6.5-.2.2-.5.4-.9.6-.3.2-.7.3-1.2.5s-.9.2-1.5.2c-.9 0-1.8-.2-2.5-.5-.8-.4-1.4-.8-2-1.4s-1-1.3-1.3-2.1c-.3-.8-.5-1.7-.5-2.6 0-.9.1-1.7.4-2.5.3-.8.7-1.4 1.2-2 .5-.5 1.1-1 1.8-1.3.7-.3 1.4-.5 2.2-.5.6 0 1.1.1 1.6.2s.9.3 1.3.5.8.4 1.1.7c.3.2.6.4.8.6h.1v-5.7h-12.9v-2.3h28.7v2.3zm-20.2 6.2c-.6 0-1.1.1-1.6.4-.5.2-.8.6-1.1.9-.3.4-.5.8-.7 1.3-.2.5-.2.9-.2 1.4 0 .5.1 1 .3 1.5.2.5.4.9.8 1.3.3.4.7.7 1.2 1 .5.2 1 .4 1.5.4s1-.1 1.5-.3c.5-.2 1-.5 1.4-.9s.8-.9 1.1-1.6c.3-.6.4-1.4.4-2.3v-.8c-.2-.3-.5-.6-.9-.9-.3-.3-.7-.5-1.1-.8-.4-.2-.8-.4-1.2-.5-.5-.1-.9-.1-1.4-.1z"/><path class="st5" d="M320.7 22.6h-3.3v21h-2.6v-21h-3.6v-2.3h9.4v2.3z"/><path class="st5" d="M336.4 22.6h-5.9c.5.9 1 1.8 1.3 2.8.3 1 .5 1.9.5 2.9 0 .7-.1 1.4-.3 2.1s-.6 1.3-1 1.8-1 1-1.6 1.3c-.6.3-1.4.5-2.2.6v.1c.9 1.5 2 2.8 3.2 4.1 1.2 1.3 2.5 2.5 4 3.7l-1.7 1.9c-.9-.7-1.7-1.4-2.5-2.1-.8-.8-1.5-1.6-2.3-2.4-.7-.8-1.4-1.6-2-2.5-.6-.8-1.2-1.7-1.7-2.5s-1-1.6-1.4-2.3c-.4-.7-.7-1.4-1-2l2.1-1.2c.4.8.8 1.4 1.3 1.9s1 .7 1.6.7c.4 0 .8-.1 1.2-.3.4-.2.7-.5.9-.9s.4-.8.5-1.2c.1-.4.2-.9.2-1.3 0-.5-.1-1-.2-1.4-.1-.5-.3-.9-.5-1.4-.2-.5-.4-.9-.7-1.3-.2-.4-.5-.8-.7-1.2h-8v-2.3h16.7v2.4z"/></g></switch></svg>