<?xml version="1.0" encoding="utf-8"?>
<!-- Generator: Adobe Illustrator 24.3.0, SVG Export Plug-In . SVG Version: 6.00 Build 0)  -->
<svg version="1.1" id="Layer_1" xmlns="http://www.w3.org/2000/svg" xmlns:xlink="http://www.w3.org/1999/xlink" x="0px" y="0px"
	 viewBox="0 0 512 406" style="enable-background:new 0 0 512 406;" xml:space="preserve">
<style type="text/css">
	.st0{fill:#013350;}
</style>
<g>
	<path class="st0" d="M501.3,250.8c-2.4,3.6-1.8,7.9-2.8,11.8c-11.6,43.4-39.3,70.2-82.7,81c-7.3,1.8-14.9,2.3-22.4,2.3
		c-18.9,0-37.8-0.1-56.7,0.1c-3.2,0-4.5-0.6-4.3-4.1c0.3-7.7,0.2-15.4,0-23.1c-0.1-3,0.9-3.7,3.8-3.7c18.7,0.1,37.5,0.1,56.2,0.1
		c38.7-0.1,69.4-25.4,76.9-63.3c7.9-39.9-19.7-81.1-59.9-88.5c-11.1-2-16.6-7.4-19.4-18.4C376.7,92.9,344.1,58,292.6,43.8
		c-53.3-14.7-100.4-0.7-138.7,39.5c-23.1,24.3-34.9,53.9-36.3,87.5c-0.1,1.8-0.3,3.5-0.4,5.3c-0.9,10.7-6.2,15.7-16.9,16.2
		c-20.1,0.9-36.6,9.1-48.2,25.6c-13.9,19.6-15.8,41-5.4,62.6c10.6,21.9,28.8,33.7,53,34.5c24.8,0.8,49.6,0.3,74.5,0.2
		c3.4,0,4.7,0.5,4.6,4.3c-0.4,7.8-0.2,15.7-0.1,23.5c0,2.2-0.4,3-2.9,3c-26.9-0.2-53.8,0.8-80.7-0.5C51,343.5,15,308.3,10,264.1
		C4.8,216.8,35.3,174,82.1,163.7c3.9-0.9,4.6-2.5,5-6c5.6-49.9,28.6-90,69-119.7c31.7-23.3,67.7-33.6,106.8-32
		c35.6,1.5,67.7,13.6,96,35.5c25,19.4,43,44,54.3,73.5c1.8,4.8,3.3,9.7,4.7,14.6c0.8,2.8,2.1,4.3,5.2,5.3
		c37.9,11.6,62.5,36.5,74.2,74.3c1.8,6,2.7,12.3,4.1,18.4c0,5.1,0,10.2,0,15.4c-0.6,0.6-0.6,1.3,0,1.9
		C501.3,247,501.3,248.9,501.3,250.8z"/>
	<path class="st0" d="M238.9,245.2c-10.3,10.5-20.6,20.9-30.8,31.5c-2.5,2.6-3.9,2.9-6.5,0.1c-5.1-5.6-10.5-10.8-15.9-16
		c-2-1.9-2.4-2.9-0.2-5.1c19.4-19.1,38.5-38.5,57.8-57.7c7.9-7.8,16.4-7.8,24.4,0.1c19.2,19.1,38.2,38.3,57.5,57.3
		c2.3,2.2,2.2,3.4,0,5.6c-5.6,5.3-11.1,10.7-16.3,16.3c-2.3,2.5-3.5,1.9-5.5-0.2c-10.4-10.6-21-21.1-31.7-31.9
		c-1.1,2-0.6,3.8-0.6,5.4c0,45.5-0.1,91,0.1,136.4c0,4.4-1.2,5.3-5.3,5.1c-6.9-0.3-13.8-0.3-20.6,0c-3.9,0.2-5.1-0.8-5.1-4.9
		c0.2-45.3,0.1-90.6,0.1-136c0-1.8,0-3.5,0-5.3C239.7,245.8,239.3,245.5,238.9,245.2z"/>
</g>
</svg>
