<?xml version="1.0" encoding="utf-8"?>
<!-- Generator: Adobe Illustrator 24.3.0, SVG Export Plug-In . SVG Version: 6.00 Build 0)  -->
<svg version="1.1" id="Layer_1" xmlns="http://www.w3.org/2000/svg" xmlns:xlink="http://www.w3.org/1999/xlink" x="0px" y="0px"
	 viewBox="0 0 127.5 76.9" style="enable-background:new 0 0 127.5 76.9;" xml:space="preserve">
<style type="text/css">
	.st0{fill:#048E81;}
	.st1{fill:#00A89C;}
	.st2{fill:#FFFFFF;}
</style>
<polygon class="st0" points="26.2,75.1 9.6,58.7 32.3,46.5 "/>
<rect x="6.3" y="13.9" transform="matrix(0.9896 -0.1438 0.1438 0.9896 -3.9754 9.5174)" class="st1" width="115.1" height="36.7"/>
<g>
	<path class="st2" d="M25.3,45c-1.6-0.6-2.9-1.5-4-2.9c-1.1-1.3-1.7-2.9-2-4.6c-0.3-1.8-0.1-3.4,0.6-5c0.6-1.6,1.7-2.8,3-3.9
		c1.4-1,3-1.7,4.9-1.9c1.9-0.3,3.6-0.1,5.2,0.5c1.6,0.6,2.9,1.5,4,2.8s1.7,2.9,2,4.6c0.3,1.8,0.1,3.5-0.6,5c-0.6,1.5-1.7,2.8-3,3.9
		c-1.4,1-3,1.7-4.9,1.9C28.6,45.7,26.9,45.6,25.3,45z M33.2,41.2c0.9-0.7,1.5-1.6,2-2.6c0.4-1.1,0.5-2.2,0.4-3.4
		c-0.2-1.2-0.6-2.3-1.3-3.2c-0.7-0.9-1.6-1.6-2.6-2c-1.1-0.4-2.2-0.5-3.4-0.3c-1.2,0.2-2.3,0.6-3.2,1.3c-0.9,0.7-1.6,1.6-2,2.6
		c-0.4,1.1-0.5,2.2-0.4,3.4s0.6,2.3,1.3,3.2c0.7,0.9,1.6,1.6,2.6,2c1.1,0.4,2.2,0.5,3.4,0.3S32.3,41.9,33.2,41.2z"/>
	<path class="st2" d="M45.1,27.4l0.8,5.6l8.8-1.3l0.4,2.9l-8.8,1.3l1,7l-3.4,0.5L41.3,25l13.3-1.9l0.4,2.8L45.1,27.4z"/>
	<path class="st2" d="M61.7,25l0.8,5.6l8.8-1.3l0.4,2.9l-8.8,1.3l1,7l-3.4,0.5l-2.6-18.3l13.3-1.9l0.4,2.8L61.7,25z"/>
	<path class="st2" d="M90.4,33.7l0.4,2.8l-13.7,2l-2.6-18.3l13.3-1.9l0.4,2.8l-9.9,1.4l0.7,4.7l8.8-1.3l0.4,2.8l-8.8,1.3l0.7,5
		L90.4,33.7z"/>
	<path class="st2" d="M106.6,34.3l-4.5-4.8c-0.2,0-0.4,0.1-0.7,0.1l-4.1,0.6l0.8,5.3L94.6,36L92,17.7l7.5-1.1c1.6-0.2,3-0.2,4.2,0.2
		s2.3,1,3,1.9c0.8,0.9,1.2,2,1.4,3.3c0.2,1.4,0,2.6-0.5,3.7c-0.5,1.1-1.4,2-2.6,2.6l5.1,5.4L106.6,34.3z M103.3,20
		c-0.9-0.5-2-0.7-3.5-0.5l-4,0.6l1,7.3l4-0.6c1.5-0.2,2.6-0.7,3.2-1.4c0.7-0.7,0.9-1.7,0.8-2.9C104.6,21.3,104.1,20.5,103.3,20z"/>
</g>
</svg>
